<svg width="44" height="44" viewBox="0 0 44 44" fill="none" xmlns="http://www.w3.org/2000/svg">
<path d="M29.969 38.677C28.6247 38.6671 27.2862 38.4983 25.9815 38.1743C21.4758 37.0872 16.836 34.3295 12.919 30.409C9.00195 26.4885 6.24077 21.8479 5.15366 17.3465C4.00898 12.6113 4.82538 8.56024 7.44992 5.93571L8.19929 5.18634C8.87919 4.5078 9.80052 4.12671 10.7611 4.12671C11.7217 4.12671 12.643 4.5078 13.3229 5.18634L17.6292 9.49181C18.3082 10.1715 18.6896 11.0929 18.6896 12.0536C18.6896 13.0143 18.3082 13.9357 17.6292 14.6154L15.0855 17.1583C16.3049 19.2981 17.9635 21.4397 19.9237 23.3999C21.884 25.3602 24.0273 27.0196 26.1662 28.2391L28.7091 25.6953C29.0455 25.3588 29.4449 25.0919 29.8844 24.9098C30.324 24.7277 30.7951 24.6339 31.2709 24.6339C31.7467 24.6339 32.2179 24.7277 32.6574 24.9098C33.097 25.0919 33.4964 25.3588 33.8327 25.6953L38.1382 30.0008C38.8173 30.6802 39.1988 31.6015 39.1988 32.5622C39.1988 33.5228 38.8173 34.4441 38.1382 35.1235L37.388 35.8729C35.5377 37.7266 32.9768 38.677 29.969 38.677ZM10.7611 6.70313C10.6239 6.70245 10.4879 6.72916 10.3611 6.7817C10.2344 6.83423 10.1194 6.91153 10.0229 7.00907L9.27265 7.75845C7.30726 9.72384 6.7332 12.9147 7.65616 16.7381C8.63327 20.7883 11.1487 24.9967 14.7383 28.5854C18.3279 32.1742 22.5354 34.687 26.5865 35.6675C30.4107 36.5905 33.5998 36.0164 35.5652 34.051L36.3146 33.3017C36.5104 33.1057 36.6204 32.84 36.6204 32.563C36.6204 32.286 36.5104 32.0203 36.3146 31.8244L32.01 27.5189C31.814 27.3231 31.5484 27.2131 31.2714 27.2131C30.9944 27.2131 30.7287 27.3231 30.5327 27.5189L27.3092 30.7424C27.1158 30.936 26.8658 31.0629 26.5954 31.1049C26.3251 31.147 26.0483 31.1019 25.8053 30.9762C23.1627 29.6098 20.4987 27.6203 18.101 25.2227C15.7034 22.825 13.7182 20.1627 12.3484 17.5201C12.2226 17.2771 12.1773 17.0005 12.2192 16.7301C12.2611 16.4597 12.3879 16.2097 12.5812 16.0162L15.8056 12.7927C16.0014 12.5967 16.1114 12.331 16.1114 12.054C16.1114 11.777 16.0014 11.5114 15.8056 11.3154L11.5001 7.00907C11.4033 6.9117 11.2882 6.83451 11.1613 6.782C11.0344 6.72948 10.8984 6.70267 10.7611 6.70313Z" fill="#9E5828"/>
<path d="M31.3457 23.1799C31.0038 23.1799 30.6759 23.0441 30.4342 22.8024C30.1925 22.5606 30.0566 22.2328 30.0566 21.8909C30.0541 19.6295 29.1547 17.4614 27.5558 15.8622C25.9568 14.2631 23.7888 13.3634 21.5273 13.3607C21.1855 13.3607 20.8576 13.2249 20.6158 12.9832C20.3741 12.7414 20.2383 12.4135 20.2383 12.0717C20.2383 11.7298 20.3741 11.4019 20.6158 11.1602C20.8576 10.9184 21.1855 10.7826 21.5273 10.7826C27.6521 10.7826 32.6348 15.767 32.6348 21.8909C32.6348 22.2328 32.499 22.5606 32.2572 22.8024C32.0155 23.0441 31.6876 23.1799 31.3457 23.1799Z" fill="#9E5828"/>
<path d="M36.7941 23.1799C36.4523 23.1799 36.1244 23.0441 35.8826 22.8024C35.6409 22.5606 35.5051 22.2328 35.5051 21.8909C35.5051 14.1832 29.2316 7.91229 21.5273 7.91229C21.1855 7.91229 20.8576 7.77648 20.6158 7.53474C20.3741 7.29299 20.2383 6.96511 20.2383 6.62323C20.2383 6.28135 20.3741 5.95347 20.6158 5.71173C20.8576 5.46998 21.1855 5.33417 21.5273 5.33417C30.6565 5.33417 38.0832 12.7617 38.0832 21.8909C38.0832 22.2328 37.9474 22.5606 37.7056 22.8024C37.4639 23.0441 37.136 23.1799 36.7941 23.1799Z" fill="#9E5828"/>
</svg>
