<svg width="43" height="43" viewBox="0 0 43 43" fill="none" xmlns="http://www.w3.org/2000/svg">
<path d="M32.7875 25.2625H13.2359L17.3747 21.1372C17.6077 20.9009 17.7384 20.5823 17.7384 20.2503C17.7384 19.9184 17.6077 19.5998 17.3747 19.3635C17.2594 19.2448 17.1216 19.1505 16.9692 19.0861C16.8169 19.0217 16.6532 18.9885 16.4878 18.9885C16.3224 18.9885 16.1587 19.0217 16.0063 19.0861C15.854 19.1505 15.7161 19.2448 15.6009 19.3635L9.32561 25.6253C9.21713 25.7434 9.13067 25.8799 9.07029 26.0285C9.00561 26.1767 8.97353 26.3371 8.97623 26.4988C8.97353 26.6605 9.00561 26.8209 9.07029 26.9691C9.13067 27.1176 9.21713 27.2541 9.32561 27.3722L15.6009 33.6475C15.7176 33.7634 15.856 33.855 16.0082 33.9173C16.1604 33.9796 16.3234 34.0112 16.4878 34.0103C16.7359 34.0116 16.9788 33.939 17.1855 33.8018C17.3922 33.6646 17.5533 33.4689 17.6484 33.2398C17.7436 33.0106 17.7683 32.7583 17.7196 32.5151C17.6708 32.2718 17.5507 32.0486 17.3747 31.8738L13.2359 27.7753H32.7875C33.0983 27.7431 33.3861 27.5969 33.5954 27.3648C33.8047 27.1328 33.9205 26.8314 33.9205 26.5189C33.9205 26.2064 33.8047 25.9051 33.5954 25.673C33.3861 25.441 33.0983 25.2947 32.7875 25.2625Z" fill="#9E5828"/>
<path d="M10.2125 17.7375H29.764L25.6253 21.8628C25.3922 22.0991 25.2616 22.4177 25.2616 22.7497C25.2616 23.0816 25.3922 23.4002 25.6253 23.6365C25.7404 23.7554 25.8782 23.85 26.0306 23.9146C26.1829 23.9792 26.3467 24.0126 26.5122 24.0128C26.6779 24.0142 26.8421 23.9815 26.9947 23.9168C27.1473 23.8521 27.2849 23.7567 27.399 23.6365L33.6744 17.3747C33.7898 17.2605 33.8813 17.1244 33.9436 16.9744C34.0059 16.8245 34.0377 16.6636 34.0372 16.5012C34.033 16.1728 33.9087 15.8574 33.6878 15.6144L27.399 9.32561C27.1638 9.09039 26.8448 8.95825 26.5122 8.95825C26.1795 8.95825 25.8605 9.09039 25.6253 9.32561C25.3901 9.56082 25.2579 9.87984 25.2579 10.2125C25.2579 10.5451 25.3901 10.8641 25.6253 11.0994L29.764 15.2247H10.2125C9.90167 15.2569 9.61382 15.4031 9.40456 15.6352C9.19529 15.8672 9.07947 16.1686 9.07947 16.4811C9.07947 16.7936 9.19529 17.0949 9.40456 17.327C9.61382 17.559 9.90167 17.7053 10.2125 17.7375Z" fill="#9E5828"/>
<path d="M21.5 2.6875C17.7792 2.6875 14.142 3.79083 11.0483 5.85798C7.95464 7.92512 5.5434 10.8632 4.11952 14.3008C2.69565 17.7383 2.3231 21.5209 3.04899 25.1701C3.77487 28.8194 5.56659 32.1715 8.19756 34.8024C10.8285 37.4334 14.1806 39.2251 17.8299 39.951C21.4791 40.6769 25.2617 40.3044 28.6992 38.8805C32.1368 37.4566 35.0749 35.0454 37.142 31.9517C39.2092 28.858 40.3125 25.2208 40.3125 21.5C40.3125 16.5106 38.3305 11.7256 34.8025 8.19755C31.2744 4.66953 26.4894 2.6875 21.5 2.6875ZM21.5 37.7997C18.2762 37.7997 15.1249 36.8437 12.4444 35.0527C9.76392 33.2617 7.67475 30.716 6.44106 27.7376C5.20738 24.7592 4.88459 21.4819 5.51351 18.3201C6.14244 15.1583 7.69484 12.2539 9.97439 9.97438C12.2539 7.69483 15.1583 6.14243 18.3201 5.51351C21.4819 4.88458 24.7593 5.20737 27.7376 6.44105C30.716 7.67474 33.2617 9.76391 35.0527 12.4444C36.8437 15.1248 37.7997 18.2762 37.7997 21.5C37.7961 25.8219 36.0777 29.9657 33.0217 33.0217C29.9657 36.0777 25.8219 37.7961 21.5 37.7997Z" fill="#9E5828"/>
</svg>
