<svg width="41" height="41" viewBox="0 0 41 41" fill="none" xmlns="http://www.w3.org/2000/svg">
<path d="M10.25 32.4583H15.375V22.2083H25.625V32.4583H30.75V17.0833L20.5 9.39579L10.25 17.0833V32.4583ZM10.25 35.875C9.31041 35.875 8.50636 35.5407 7.83783 34.8722C7.16816 34.2025 6.83333 33.3979 6.83333 32.4583V17.0833C6.83333 16.5423 6.95462 16.0298 7.1972 15.5458C7.43865 15.0618 7.77291 14.6632 8.2 14.35L18.45 6.66246C18.7632 6.43468 19.0906 6.26385 19.4323 6.14996C19.774 6.03607 20.1299 5.97913 20.5 5.97913C20.8701 5.97913 21.226 6.03607 21.5677 6.14996C21.9094 6.26385 22.2368 6.43468 22.55 6.66246L32.8 14.35C33.2271 14.6632 33.5619 15.0618 33.8045 15.5458C34.0459 16.0298 34.1667 16.5423 34.1667 17.0833V32.4583C34.1667 33.3979 33.8324 34.2025 33.1639 34.8722C32.4942 35.5407 31.6896 35.875 30.75 35.875H22.2083V25.625H18.7917V35.875H10.25Z" fill="#21A86E"/>
</svg>
