<svg width="51" height="51" viewBox="0 0 51 51" fill="none" xmlns="http://www.w3.org/2000/svg">
<g clip-path="url(#clip0_1_272)">
<path d="M40.4227 27.0555C40.9892 27.0555 41.5242 26.8351 41.9228 26.4311L50.362 18.0045C50.7659 17.6005 50.9862 17.0706 50.9862 16.5039C50.9862 15.9373 50.7659 15.4021 50.362 15.0033C49.9582 14.5993 49.4232 14.3789 48.8567 14.3789C48.2903 14.3789 47.75 14.5993 47.3514 15.0033L38.9226 23.4351C38.5187 23.8391 38.2985 24.3691 38.2985 24.9357C38.2985 25.5024 38.5187 26.0376 38.9226 26.4363C39.3212 26.8351 39.8562 27.0555 40.4227 27.0555Z" fill="white"/>
<path d="M0.719169 49.0482C1.53739 50.2707 2.89061 51.0001 4.33824 51.0001C4.90995 51.0001 5.47117 50.8846 6.01666 50.659L37.5603 37.6886C39.2545 36.9908 40.3192 35.3537 40.2668 33.5121C40.2143 31.6809 39.0552 30.1068 37.3086 29.5087L25.502 25.479L21.4633 13.6682C20.8496 11.8685 19.2289 10.7089 17.325 10.7089C15.5207 10.7089 13.9734 11.7478 13.2863 13.4164L0.315299 44.9766C-0.251164 46.346 -0.0990572 47.8362 0.719169 49.0482ZM17.4456 15.0324L21.82 27.8297C22.0298 28.454 22.5228 28.9472 23.147 29.1571L35.9396 33.5278C35.9868 33.5436 36.013 33.554 36.0235 33.638C36.0183 33.7219 35.9973 33.7324 35.9501 33.7534L4.41692 46.7186C4.36972 46.7343 4.34874 46.7396 4.34874 46.7396C4.32775 46.7396 4.29104 46.7238 4.25957 46.6766C4.25433 46.6714 4.25432 46.6661 4.24908 46.6609C4.23859 46.6504 4.23859 46.6399 4.23859 46.6399C4.23859 46.6399 4.23859 46.6189 4.25433 46.5769C4.25433 46.5717 4.25957 46.5664 4.25957 46.5612L17.2305 15.0272C17.2515 14.9747 17.262 14.959 17.3355 14.959C17.4194 14.9537 17.4299 14.9852 17.4456 15.0324Z" fill="white"/>
<path d="M27.5651 12.0739L35.9886 3.64732C36.3978 3.2433 36.6233 2.70812 36.6233 2.13096C36.6233 1.56429 36.403 1.0291 35.9991 0.635582C35.5953 0.236817 35.0655 0.0164465 34.4938 0.0164465C33.9221 0.0164465 33.3871 0.236819 32.9885 0.640831L24.5597 9.07263C23.731 9.90164 23.731 11.2501 24.5597 12.0791C25.3884 12.9029 26.7364 12.9029 27.5651 12.0739Z" fill="white"/>
<path d="M35.061 13.7807C34.4893 13.7807 33.9543 14.0011 33.5557 14.4051L26.9574 21.011C26.5536 21.415 26.3333 21.9449 26.3333 22.5116C26.3333 23.0783 26.5536 23.6134 26.9574 24.0122C27.7861 24.8412 29.1341 24.8412 29.9628 24.0122L36.5663 17.4063C36.9702 17.0023 37.1905 16.4724 37.1905 15.9057C37.1905 15.3391 36.9702 14.8039 36.5663 14.4051C36.1625 14.0011 35.6275 13.7807 35.061 13.7807Z" fill="white"/>
</g>
<defs>
<clipPath id="clip0_1_272">
<rect width="51" height="51" fill="white" transform="matrix(-1 0 0 -1 51 51)"/>
</clipPath>
</defs>
</svg>
