<svg width="52" height="51" viewBox="0 0 52 51" fill="none" xmlns="http://www.w3.org/2000/svg">
<g clip-path="url(#clip0_1_218)">
<path d="M10.5812 23.9446C10.0145 23.9446 9.47936 24.165 9.0806 24.569L0.6383 32.9955C0.234287 33.3995 0.013916 33.9295 0.013916 34.4961C0.013916 35.0628 0.234287 35.598 0.6383 35.9968C1.04231 36.4008 1.5775 36.6211 2.14417 36.6211C2.71083 36.6211 3.25127 36.4008 3.65003 35.9968L12.0818 27.565C12.4858 27.1609 12.7062 26.631 12.7062 26.0643C12.7062 25.4977 12.4858 24.9625 12.0818 24.5637C11.6831 24.165 11.1479 23.9446 10.5812 23.9446Z" fill="white"/>
<path d="M50.299 1.95185C49.4805 0.729322 48.1268 0 46.6786 0C46.1067 0 45.5453 0.115432 44.9996 0.34105L13.4446 13.3114C11.7499 14.0093 10.6847 15.6463 10.7372 17.488C10.7897 19.3192 11.9492 20.8932 13.6965 21.4914L25.5073 25.521L29.5474 37.3318C30.1613 39.1315 31.7826 40.2911 33.6872 40.2911C35.4922 40.2911 37.04 39.2522 37.7274 37.5837L50.703 6.02347C51.2697 4.65402 51.1175 3.16389 50.299 1.95185ZM33.5666 35.9676L29.1906 23.1704C28.9808 22.546 28.4875 22.0528 27.8632 21.8429L15.0659 17.4722C15.0187 17.4565 14.9925 17.446 14.982 17.3621C14.9872 17.2781 15.0082 17.2676 15.0554 17.2466L46.5999 4.28149C46.6471 4.26575 46.6681 4.2605 46.6681 4.2605C46.6891 4.2605 46.7258 4.27624 46.7573 4.32346C46.7626 4.32871 46.7626 4.33396 46.7678 4.3392C46.7783 4.3497 46.7783 4.36019 46.7783 4.36019C46.7783 4.36019 46.7783 4.38118 46.7626 4.42315C46.7626 4.4284 46.7573 4.43365 46.7573 4.4389L33.7817 35.9729C33.7607 36.0254 33.7502 36.0411 33.6767 36.0411C33.5928 36.0463 33.5823 36.0149 33.5666 35.9676Z" fill="white"/>
<path d="M23.4435 38.9259L15.0169 47.3525C14.6076 47.7565 14.382 48.2917 14.382 48.8689C14.382 49.4355 14.6024 49.9707 15.0064 50.3642C15.4104 50.763 15.9404 50.9834 16.5123 50.9834C17.0842 50.9834 17.6194 50.763 18.0181 50.359L26.4499 41.9272C27.279 41.0982 27.279 39.7497 26.4499 38.9207C25.6209 38.0969 24.2725 38.0969 23.4435 38.9259Z" fill="white"/>
<path d="M15.9448 37.2191C16.5167 37.2191 17.0519 36.9987 17.4507 36.5947L24.0513 29.9888C24.4553 29.5848 24.6757 29.0549 24.6757 28.4882C24.6757 27.9216 24.4553 27.3864 24.0513 26.9876C23.2223 26.1586 21.8738 26.1586 21.0448 26.9876L14.439 33.5935C14.0349 33.9975 13.8146 34.5274 13.8146 35.0941C13.8146 35.6608 14.0349 36.196 14.439 36.5947C14.843 36.9987 15.3782 37.2191 15.9448 37.2191Z" fill="white"/>
</g>
<defs>
<clipPath id="clip0_1_218">
<rect width="51.0183" height="51" fill="white"/>
</clipPath>
</defs>
</svg>
